<svg xmlns="http://www.w3.org/2000/svg" viewBox="0 0 37.81 48.24"><defs><style>.cls-1{fill:#fff;}</style></defs><title>Ativo 1</title><g id="Camada_2" data-name="Camada 2"><g id="Camada_1-2" data-name="Camada 1"><path class="cls-1" d="M5.81,23.81c.28,0,.59,0,.65-.16.29-.74-5.27-3-5.6-6.63,0-.24-.08-.85.19-1.07.56-.48,2.05,1.13,2.89,1.86,3.28,2.83,6,.12,10,1.87,5,2.19,6.63,9.07,8.11,8.23.35-.2.47-.71.63-1.45.39-1.76-.28-2.62-1.21-6.56a13.67,13.67,0,0,1-.52-3.76c0-.37.06-.86.14-1.83.16-1.88.23-2,.3-2,.45-.15,1.52,3.74,1.74,3.65s-.74-3.09-.64-7.07c.05-1.73.3-4.08.72-4.14.65-.08,1.35,5.44,1.76,5.34.11,0,.12-.46.26-3,.37-7,.26-2.9.29-3.85a4.53,4.53,0,0,1,.39-2.14,2.39,2.39,0,0,1,1-1.06c1.79-.55,6.14,8.8,6,15.67a27.41,27.41,0,0,1-.72,6.53c-.34,1.13-.88,2.48-.59,2.71s1.49-1.88,2.88-1.69c1,.14,1.91,1.44,2,1.58a10.76,10.76,0,0,0,.65,1c.47.59.79.8.74,1.05s-.35.22-.7.45a3.13,3.13,0,0,0-1,1.41c-.64,1.56.33,4.66.37,7.18a12.55,12.55,0,0,1-1.29,5.51c-1.9,4.09-6.34,7.22-10.17,6.78-2-.24-2.37-1.29-6.6-2.29a15.08,15.08,0,0,0-3.57-.61c-4.22.08-5.75,3.35-9.31,2.57C4.39,47.61,2.93,47,3,46.6s1.74-.51,1.75-.8-1-.15-2.16-.8c-1-.56-1.77-1.51-1.63-1.83s2.25.26,2.31,0-.85-.4-1.65-1.13C.39,40.92-.29,38.89.12,38.41s1.23.7,3.26,1.34c1.55.49,3,.36,5.86.11,2.59-.23,2.09-.51,3.64-.53A4.16,4.16,0,0,0,15,38.84a1.94,1.94,0,0,0,1.09-1.15,1.82,1.82,0,0,0-.4-1.35,10.68,10.68,0,0,0-5.12-3.82c-1.68-.53-2-.22-2.95-.87-1.54-1-2.57-3-2.22-3.56.48-.73,3.56,1.11,3.6,1a17.45,17.45,0,0,1-4.8-3.22c-1.77-1.78-3-4-2.7-4.33s1.53.56,2.31,1.18S5,23.8,5.81,23.81Z"/></g></g></svg>